<?xml version="1.0" encoding="UTF-8" standalone="no"?>
<!-- Created with Inkscape (http://www.inkscape.org/) -->

<svg
   xmlns:dc="http://purl.org/dc/elements/1.1/"
   xmlns:cc="http://creativecommons.org/ns#"
   xmlns:rdf="http://www.w3.org/1999/02/22-rdf-syntax-ns#"
   xmlns:svg="http://www.w3.org/2000/svg"
   xmlns="http://www.w3.org/2000/svg"
   version="1.1"
   width="32"
   height="32"
   id="svg3032">
  <defs
     id="defs3034" />
  <metadata
     id="metadata3037">
    <rdf:RDF>
      <cc:Work
         rdf:about="">
        <dc:format>image/svg+xml</dc:format>
        <dc:type
           rdf:resource="http://purl.org/dc/dcmitype/StillImage" />
        <dc:title></dc:title>
      </cc:Work>
    </rdf:RDF>
  </metadata>
  <g
     transform="translate(-24.000029,-270.6479)"
     id="layer1">
    <path
       d="m 55.000029,278.6479 c 0,-3.87 -3.13,-7 -7,-7 h -16 c -3.87,0 -7,3.13 -7,7 v 16 c 0,3.87 3.13,7 7,7 h 7.98 v -9.99 l -2.98,-0.01 v -5 l 2.99,0.01 0.01,-4.01 c 0,-1.56 1.12,-4 4,-4 h 0.38 c 4.65,0 4.57,0.01 4.57,0.01 v 5 h -3.04 c 0,0 -0.96,0.01 -0.96,1 v 2 l 3.05,-0.01 v 5 h -3 v 10 h 3 c 3.87,0 7,-3.13 7,-7 v -16 z m -8,12 v -3 l -2.05,0.01 h -0.97 v -1 -2 c 0,-1.28 0.99,-1.99 1.91,-2 h 2.1 v -3.01 h -3.99 c -1.59,0 -3,1.38 -3,3 v 5 h -3 v 3 h 3 l -0.06,11 h 3.06 v -11 h 3 z m 1,12 h -16 c -4.42,0 -8,-3.58 -8,-8 v -16 c 0,-4.42 3.58,-8 8,-8 h 16 c 4.42,0 8,3.58 8,8 v 16 c 0,4.42 -3.58,8 -8,8 z"
       id="path49"
       style="fill-rule:evenodd" />
  </g>
</svg>
