<?xml version="1.0" encoding="UTF-8" standalone="no"?>
<!-- Created with Inkscape (http://www.inkscape.org/) -->

<svg
   xmlns:dc="http://purl.org/dc/elements/1.1/"
   xmlns:cc="http://creativecommons.org/ns#"
   xmlns:rdf="http://www.w3.org/1999/02/22-rdf-syntax-ns#"
   xmlns:svg="http://www.w3.org/2000/svg"
   xmlns="http://www.w3.org/2000/svg"
   version="1.1"
   width="32"
   height="30"
   id="svg3032">
  <defs
     id="defs3034" />
  <metadata
     id="metadata3037">
    <rdf:RDF>
      <cc:Work
         rdf:about="">
        <dc:format>image/svg+xml</dc:format>
        <dc:type
           rdf:resource="http://purl.org/dc/dcmitype/StillImage" />
        <dc:title></dc:title>
      </cc:Work>
    </rdf:RDF>
  </metadata>
  <g
     transform="translate(-422.28574,-156.21933)"
     id="layer1">
    <path
       d="m 450.28574,157.24933 h -1 -2 -1 v 1 2.97 h -3 -1 v 1 2.03 1 h 1 3 v 2.97 1 h 1 2 1 v -1 -2.97 h 3 1 v -1 -2.03 -1 h -1 -3 v -2.97 -1 z m -18.25,25 c -2.65,0 -4.58,-1.37 -4.58,-3.26 0,-1.78 2.41,-3.39 5.06,-3.39 h 0.07 c 0.58,0 1.14,0.09 1.67,0.24 l 0.53,0.37 c 1.42,0.96 2.11,1.47 2.32,2.28 0.04,0.2 0.07,0.41 0.07,0.62 0,1.46 -0.58,3.14 -5.14,3.14 z m 0.94,-14.19 h -0.06 c -1.67,-0.05 -3.35,-2.08 -3.65,-4.42 -0.18,-1.3 0.09,-2.46 0.72,-3.18 0.39,-0.44 0.88,-0.67 1.45,-0.67 h 0.06 c 1.54,0.05 3.42,1.8 3.75,4.34 0.17,1.27 -0.12,2.48 -0.77,3.22 -0.29,0.32 -0.78,0.71 -1.5,0.71 z m 10.37,-11.84 h -2.32 -8.44 c -4.37,0 -8.35,3.52 -8.35,7.38 0,3.92 2.9,6.93 6.84,7.2 -0.04,0.21 -0.06,0.42 -0.06,0.64 0,0.47 0.09,0.93 0.27,1.38 -4.92,0.17 -9,3.34 -9,7.07 0,3.55 4.29,6.33 9.77,6.33 4.53,0 9.23,-2.79 9.23,-7.45 0,-2.89 -0.9,-4.6 -3.31,-6.3 -0.85,-0.6 -1.7,-1.52 -1.8,-1.85 0,-0.44 0.03,-0.65 1.23,-1.59 1.9,-1.48 2.87,-3.19 2.87,-5.06 0,-1.42 -0.41,-2.7 -1.18,-3.75 h 0.04 0.43 l 0.29,-0.31 1.89,-2 1.6,-1.69 z m 5.94,2.03 v 3.97 h 4 v 2.03 h -4 v 3.97 h -2 v -3.97 h -4 v -2.03 h 4 v -3.97 h 2 z m -17.25,25 c 4.55,0 6.14,-1.67 6.14,-4.14 0,-0.29 -0.04,-0.58 -0.1,-0.87 -0.36,-1.39 -1.62,-2.08 -3.38,-3.3 -0.64,-0.21 -1.34,-0.33 -2.1,-0.34 h -0.08 c -3.21,0 -6.06,1.99 -6.06,4.39 0,2.46 2.34,4.26 5.58,4.26 z m 0.94,-14.19 c 2.13,0 3.63,-2.24 3.26,-5.06 -0.37,-2.85 -2.53,-5.14 -4.71,-5.21 h -0.09 c -2.13,0 -3.54,2.16 -3.17,4.98 0.38,2.85 2.45,5.22 4.62,5.29 h 0.09 z m 8.05,-11.84 -1.89,2 h -2.68 c 1.78,1 2.82,2.62 2.82,4.75 0,1.78 -1.09,3.18 -2.48,4.28 -1.36,1.06 -1.62,1.5 -1.62,2.41 0,0.77 1.46,2.08 2.22,2.62 2.23,1.58 2.89,3.04 2.89,5.49 0,3.05 -2.89,6.45 -8.23,6.45 -4.69,0 -8.77,-2.28 -8.77,-5.33 0,-3.1 3.73,-6.08 8.42,-6.08 0.51,0 0.98,-0.02 1.46,-0.02 -0.64,-0.63 -1.15,-1.4 -1.15,-2.35 0,-0.55 0.18,-1.12 0.43,-1.6 l -0.14,0.01 c -0.21,0 -0.42,-0.03 -0.64,-0.03 -3.85,0 -6.43,-2.83 -6.43,-6.22 0,-3.32 3.56,-6.38 7.35,-6.38 h 8.44 z"
       id="path45" />
  </g>
</svg>
