<?xml version="1.0" encoding="UTF-8" standalone="no"?>
<!-- Created with Inkscape (http://www.inkscape.org/) -->

<svg
   xmlns:dc="http://purl.org/dc/elements/1.1/"
   xmlns:cc="http://creativecommons.org/ns#"
   xmlns:rdf="http://www.w3.org/1999/02/22-rdf-syntax-ns#"
   xmlns:svg="http://www.w3.org/2000/svg"
   xmlns="http://www.w3.org/2000/svg"
   version="1.1"
   width="28.818394"
   height="25"
   id="svg3032">
  <defs
     id="defs3034" />
  <metadata
     id="metadata3037">
    <rdf:RDF>
      <cc:Work
         rdf:about="">
        <dc:format>image/svg+xml</dc:format>
        <dc:type
           rdf:resource="http://purl.org/dc/dcmitype/StillImage" />
        <dc:title></dc:title>
      </cc:Work>
    </rdf:RDF>
  </metadata>
  <g
     transform="translate(-513.59083,-622.29076)"
     id="layer1">
    <path
       d="m 533.16249,622.29076 c -3.58,0 -6.5,3.05 -6.5,6.81 v 0.21 c -3.67,-0.52 -7.06,-2.51 -9.43,-5.57 -0.18,-0.25 -0.47,-0.39 -0.78,-0.39 l -0.08,0.01 c -0.33,0.02 -0.63,0.21 -0.79,0.51 -0.57,1.03 -0.87,2.2 -0.87,3.4 0,1.11 0.26,2.18 0.73,3.13 -0.09,0.02 -0.18,0.06 -0.27,0.11 -0.3,0.17 -0.5,0.49 -0.5,0.85 v 0.09 c 0,2 0.84,3.84 2.2,5.11 l -0.02,0.01 c -0.23,0.26 -0.31,0.63 -0.21,0.97 0.58,1.91 1.92,3.42 3.61,4.18 -1.34,0.69 -2.82,1.04 -4.35,1.04 -0.4,0 -0.8,-0.02 -1.2,-0.07 l -0.12,-0.01 c -0.41,0 -0.78,0.26 -0.93,0.65 -0.16,0.44 0,0.92 0.38,1.18 2.69,1.82 5.8,2.78 8.99,2.78 6.28,0 10.2,-3.12 12.39,-5.74 2.71,-3.24 4.27,-7.54 4.27,-11.78 v -0.28 c 1,-0.83 1.86,-1.82 2.57,-2.94 0.24,-0.37 0.2,-0.86 -0.09,-1.2 -0.19,-0.22 -0.47,-0.34 -0.75,-0.34 -0.06,0 -0.12,0.01 -0.19,0.02 0.16,-0.33 0.3,-0.67 0.4,-1.02 0.12,-0.4 -0.01,-0.83 -0.34,-1.09 -0.18,-0.14 -0.39,-0.21 -0.61,-0.21 -0.18,0 -0.36,0.05 -0.52,0.16 -0.83,0.52 -1.72,0.9 -2.66,1.15 -1.18,-1.11 -2.73,-1.73 -4.33,-1.73 z m 0,1 c 1.58,0 3.01,0.71 4.02,1.83 1.25,-0.26 2.43,-0.74 3.49,-1.41 -0.41,1.36 -1.28,2.5 -2.42,3.22 1.12,-0.14 2.18,-0.46 3.16,-0.92 -0.73,1.17 -1.67,2.19 -2.74,3.01 0.01,0.25 0.01,0.5 0.01,0.75 0,7.67 -5.53,16.52 -15.66,16.52 -3.11,0 -6,-0.96 -8.44,-2.61 0.43,0.05 0.87,0.08 1.32,0.08 2.57,0 4.95,-0.93 6.83,-2.48 -2.41,-0.05 -4.44,-1.73 -5.14,-4.04 0.34,0.07 0.68,0.11 1.04,0.11 0.5,0 0.98,-0.07 1.45,-0.21 -2.52,-0.53 -4.42,-2.88 -4.42,-5.69 v -0.07 c 0.74,0.43 1.59,0.69 2.49,0.72 -1.47,-1.04 -2.45,-2.81 -2.45,-4.83 0,-1.06 0.28,-2.06 0.75,-2.92 2.72,3.52 6.77,5.83 11.35,6.07 -0.1,-0.43 -0.15,-0.87 -0.15,-1.32 0,-3.21 2.47,-5.81 5.51,-5.81 z"
       id="path47" />
  </g>
</svg>
